ISO-10303-21;
HEADER;
FILE_DESCRIPTION(('FreeCAD Model'),'2;1');
FILE_NAME('Open CASCADE Shape Model','2025-07-15T10:48:25',(''),(''),
  'Open CASCADE STEP processor 7.8','FreeCAD','Unknown');
FILE_SCHEMA(('CONFIG_CONTROL_DESIGN','SHAPE_APPEARANCE_LAYER_MIM'));
ENDSEC;
DATA;
#1 = APPLICATION_PROTOCOL_DEFINITION('international standard',
  'config_control_design',1994,#2);
#2 = APPLICATION_CONTEXT(
'configuration controlled 3D designs of mechanical parts and assemblies'
  );
#3 = SHAPE_DEFINITION_REPRESENTATION(#4,#10);
#4 = PRODUCT_DEFINITION_SHAPE('','',#5);
#5 = PRODUCT_DEFINITION('design','',#6,#9);
#6 = PRODUCT_DEFINITION_FORMATION_WITH_SPECIFIED_SOURCE('','',#7,
  .NOT_KNOWN.);
#7 = PRODUCT('Body','Body','',(#8));
#8 = MECHANICAL_CONTEXT('',#2,'mechanical');
#9 = DESIGN_CONTEXT('',#2,'design');
#10 = ADVANCED_BREP_SHAPE_REPRESENTATION('',(#11,#15),#960);
#11 = AXIS2_PLACEMENT_3D('',#12,#13,#14);
#12 = CARTESIAN_POINT('',(0.,0.,0.));
#13 = DIRECTION('',(0.,0.,1.));
#14 = DIRECTION('',(1.,0.,-0.));
#15 = MANIFOLD_SOLID_BREP('',#16);
#16 = CLOSED_SHELL('',(#17,#54,#88,#134,#578,#602,#651,#664,#680,#706,
    #756,#856,#869,#896,#924,#941));
#17 = ADVANCED_FACE('',(#18,#29),#49,.T.);
#18 = FACE_BOUND('',#19,.T.);
#19 = EDGE_LOOP('',(#20));
#20 = ORIENTED_EDGE('',*,*,#21,.T.);
#21 = EDGE_CURVE('',#22,#22,#24,.T.);
#22 = VERTEX_POINT('',#23);
#23 = CARTESIAN_POINT('',(9.,0.,65.));
#24 = CIRCLE('',#25,9.);
#25 = AXIS2_PLACEMENT_3D('',#26,#27,#28);
#26 = CARTESIAN_POINT('',(0.,0.,65.));
#27 = DIRECTION('',(0.,0.,1.));
#28 = DIRECTION('',(1.,0.,0.));
#29 = FACE_BOUND('',#30,.T.);
#30 = EDGE_LOOP('',(#31,#42));
#31 = ORIENTED_EDGE('',*,*,#32,.F.);
#32 = EDGE_CURVE('',#33,#35,#37,.T.);
#33 = VERTEX_POINT('',#34);
#34 = CARTESIAN_POINT('',(3.8,1.443289932013E-14,65.));
#35 = VERTEX_POINT('',#36);
#36 = CARTESIAN_POINT('',(-3.8,-1.466331512622E-08,65.));
#37 = CIRCLE('',#38,3.8);
#38 = AXIS2_PLACEMENT_3D('',#39,#40,#41);
#39 = CARTESIAN_POINT('',(0.,1.443289932013E-14,65.));
#40 = DIRECTION('',(-0.,2.22044604925E-16,1.));
#41 = DIRECTION('',(1.,0.,0.));
#42 = ORIENTED_EDGE('',*,*,#43,.F.);
#43 = EDGE_CURVE('',#35,#33,#44,.T.);
#44 = CIRCLE('',#45,3.8);
#45 = AXIS2_PLACEMENT_3D('',#46,#47,#48);
#46 = CARTESIAN_POINT('',(0.,1.443289932013E-14,65.));
#47 = DIRECTION('',(-0.,2.22044604925E-16,1.));
#48 = DIRECTION('',(1.,0.,0.));
#49 = PLANE('',#50);
#50 = AXIS2_PLACEMENT_3D('',#51,#52,#53);
#51 = CARTESIAN_POINT('',(-3.E-16,3.7E-16,65.));
#52 = DIRECTION('',(0.,0.,1.));
#53 = DIRECTION('',(1.,0.,0.));
#54 = ADVANCED_FACE('',(#55),#83,.F.);
#55 = FACE_BOUND('',#56,.F.);
#56 = EDGE_LOOP('',(#57,#58,#65,#74,#81,#82));
#57 = ORIENTED_EDGE('',*,*,#32,.F.);
#58 = ORIENTED_EDGE('',*,*,#59,.F.);
#59 = EDGE_CURVE('',#60,#33,#62,.T.);
#60 = VERTEX_POINT('',#61);
#61 = CARTESIAN_POINT('',(3.8,1.398881011028E-14,63.));
#62 = B_SPLINE_CURVE_WITH_KNOTS('',1,(#63,#64),.UNSPECIFIED.,.F.,.F.,(2,
    2),(0.,2.),.PIECEWISE_BEZIER_KNOTS.);
#63 = CARTESIAN_POINT('',(3.8,1.305807854292E-14,63.));
#64 = CARTESIAN_POINT('',(3.8,1.350216775278E-14,65.));
#65 = ORIENTED_EDGE('',*,*,#66,.T.);
#66 = EDGE_CURVE('',#60,#67,#69,.T.);
#67 = VERTEX_POINT('',#68);
#68 = CARTESIAN_POINT('',(-3.8,1.445417589395E-14,63.));
#69 = CIRCLE('',#70,3.8);
#70 = AXIS2_PLACEMENT_3D('',#71,#72,#73);
#71 = CARTESIAN_POINT('',(0.,1.398881011028E-14,63.));
#72 = DIRECTION('',(-0.,2.22044604925E-16,1.));
#73 = DIRECTION('',(1.,0.,0.));
#74 = ORIENTED_EDGE('',*,*,#75,.T.);
#75 = EDGE_CURVE('',#67,#60,#76,.T.);
#76 = CIRCLE('',#77,3.8);
#77 = AXIS2_PLACEMENT_3D('',#78,#79,#80);
#78 = CARTESIAN_POINT('',(0.,1.398881011028E-14,63.));
#79 = DIRECTION('',(-0.,2.22044604925E-16,1.));
#80 = DIRECTION('',(1.,0.,0.));
#81 = ORIENTED_EDGE('',*,*,#59,.T.);
#82 = ORIENTED_EDGE('',*,*,#43,.F.);
#83 = CYLINDRICAL_SURFACE('',#84,3.8);
#84 = AXIS2_PLACEMENT_3D('',#85,#86,#87);
#85 = CARTESIAN_POINT('',(0.,1.398881011028E-14,63.));
#86 = DIRECTION('',(0.,2.22044604925E-16,1.));
#87 = DIRECTION('',(1.,0.,0.));
#88 = ADVANCED_FACE('',(#89,#93),#129,.T.);
#89 = FACE_BOUND('',#90,.F.);
#90 = EDGE_LOOP('',(#91,#92));
#91 = ORIENTED_EDGE('',*,*,#75,.F.);
#92 = ORIENTED_EDGE('',*,*,#66,.F.);
#93 = FACE_BOUND('',#94,.F.);
#94 = EDGE_LOOP('',(#95,#106,#115,#122));
#95 = ORIENTED_EDGE('',*,*,#96,.T.);
#96 = EDGE_CURVE('',#97,#99,#101,.T.);
#97 = VERTEX_POINT('',#98);
#98 = CARTESIAN_POINT('',(-1.530434782609,-1.287543931748,63.));
#99 = VERTEX_POINT('',#100);
#100 = CARTESIAN_POINT('',(2.,1.398881011028E-14,63.));
#101 = CIRCLE('',#102,2.);
#102 = AXIS2_PLACEMENT_3D('',#103,#104,#105);
#103 = CARTESIAN_POINT('',(0.,1.398881011028E-14,63.));
#104 = DIRECTION('',(-0.,2.22044604925E-16,1.));
#105 = DIRECTION('',(1.,0.,0.));
#106 = ORIENTED_EDGE('',*,*,#107,.T.);
#107 = EDGE_CURVE('',#99,#108,#110,.T.);
#108 = VERTEX_POINT('',#109);
#109 = CARTESIAN_POINT('',(-1.530434782609,1.287543931748,63.));
#110 = CIRCLE('',#111,2.);
#111 = AXIS2_PLACEMENT_3D('',#112,#113,#114);
#112 = CARTESIAN_POINT('',(0.,1.398881011028E-14,63.));
#113 = DIRECTION('',(-0.,2.22044604925E-16,1.));
#114 = DIRECTION('',(1.,0.,0.));
#115 = ORIENTED_EDGE('',*,*,#116,.T.);
#116 = EDGE_CURVE('',#108,#67,#117,.T.);
#117 = CIRCLE('',#118,1.5);
#118 = AXIS2_PLACEMENT_3D('',#119,#120,#121);
#119 = CARTESIAN_POINT('',(-2.3,0.,63.));
#120 = DIRECTION('',(0.,0.,1.));
#121 = DIRECTION('',(1.,0.,0.));
#122 = ORIENTED_EDGE('',*,*,#123,.T.);
#123 = EDGE_CURVE('',#67,#97,#124,.T.);
#124 = CIRCLE('',#125,1.5);
#125 = AXIS2_PLACEMENT_3D('',#126,#127,#128);
#126 = CARTESIAN_POINT('',(-2.3,0.,63.));
#127 = DIRECTION('',(0.,0.,1.));
#128 = DIRECTION('',(1.,0.,0.));
#129 = PLANE('',#130);
#130 = AXIS2_PLACEMENT_3D('',#131,#132,#133);
#131 = CARTESIAN_POINT('',(0.,1.398881011028E-14,63.));
#132 = DIRECTION('',(0.,2.22044604925E-16,1.));
#133 = DIRECTION('',(1.,0.,0.));
#134 = ADVANCED_FACE('',(#135),#573,.F.);
#135 = FACE_BOUND('',#136,.F.);
#136 = EDGE_LOOP('',(#137,#148,#156,#305,#306,#315,#334,#347,#410,#423,
    #445,#454,#476,#553));
#137 = ORIENTED_EDGE('',*,*,#138,.F.);
#138 = EDGE_CURVE('',#139,#141,#143,.T.);
#139 = VERTEX_POINT('',#140);
#140 = CARTESIAN_POINT('',(0.,3.5,32.5));
#141 = VERTEX_POINT('',#142);
#142 = CARTESIAN_POINT('',(0.,2.,35.372281323269));
#143 = CIRCLE('',#144,3.5);
#144 = AXIS2_PLACEMENT_3D('',#145,#146,#147);
#145 = CARTESIAN_POINT('',(0.,0.,32.5));
#146 = DIRECTION('',(1.,0.,0.));
#147 = DIRECTION('',(0.,1.,0.));
#148 = ORIENTED_EDGE('',*,*,#149,.T.);
#149 = EDGE_CURVE('',#139,#150,#152,.T.);
#150 = VERTEX_POINT('',#151);
#151 = CARTESIAN_POINT('',(-8.291561975889,3.5,32.5));
#152 = LINE('',#153,#154);
#153 = CARTESIAN_POINT('',(0.,3.5,32.5));
#154 = VECTOR('',#155,1.);
#155 = DIRECTION('',(-1.,-0.,-0.));
#156 = ORIENTED_EDGE('',*,*,#157,.T.);
#157 = EDGE_CURVE('',#150,#150,#158,.T.);
#158 = B_SPLINE_CURVE_WITH_KNOTS('',7,(#159,#160,#161,#162,#163,#164,
    #165,#166,#167,#168,#169,#170,#171,#172,#173,#174,#175,#176,#177,
    #178,#179,#180,#181,#182,#183,#184,#185,#186,#187,#188,#189,#190,
    #191,#192,#193,#194,#195,#196,#197,#198,#199,#200,#201,#202,#203,
    #204,#205,#206,#207,#208,#209,#210,#211,#212,#213,#214,#215,#216,
    #217,#218,#219,#220,#221,#222,#223,#224,#225,#226,#227,#228,#229,
    #230,#231,#232,#233,#234,#235,#236,#237,#238,#239,#240,#241,#242,
    #243,#244,#245,#246,#247,#248,#249,#250,#251,#252,#253,#254,#255,
    #256,#257,#258,#259,#260,#261,#262,#263,#264,#265,#266,#267,#268,
    #269,#270,#271,#272,#273,#274,#275,#276,#277,#278,#279,#280,#281,
    #282,#283,#284,#285,#286,#287,#288,#289,#290,#291,#292,#293,#294,
    #295,#296,#297,#298,#299,#300,#301,#302,#303,#304),.UNSPECIFIED.,.T.
  ,.F.,(8,6,6,6,6,6,6,6,6,6,6,6,6,6,6,6,6,6,6,6,6,6,6,6,8),(0.,
    0.127449647404,0.152870156668,0.1850625876,0.222909437433,
    0.276835445756,0.314560036334,0.345566418924,0.370930909146,
    0.392420750489,0.409689319107,0.436831962306,0.49920455099,
    0.574716044653,0.58931710252,0.606427271724,0.627625282672,
    0.6530517289,0.685251678376,0.723107367337,0.777045970074,
    0.814779371226,0.845792995354,0.871163409451,1.),.UNSPECIFIED.);
#159 = CARTESIAN_POINT('',(-8.291561975888,3.5,32.5));
#160 = CARTESIAN_POINT('',(-8.291561975888,3.5,32.852926437848));
#161 = CARTESIAN_POINT('',(-8.309087586855,3.458481834318,
    33.204804336186));
#162 = CARTESIAN_POINT('',(-8.343953009317,3.375883299552,
    33.552482333171));
#163 = CARTESIAN_POINT('',(-8.39479358368,3.251790549781,33.892656208379
    ));
#164 = CARTESIAN_POINT('',(-8.459043868971,3.085159534811,
    34.221426848874));
#165 = CARTESIAN_POINT('',(-8.532804885315,2.874529114432,
    34.533736406198));
#166 = CARTESIAN_POINT('',(-8.626230168588,2.567295183037,
    34.880109888151));
#167 = CARTESIAN_POINT('',(-8.641938696207,2.514366287134,
    34.936804048943));
#168 = CARTESIAN_POINT('',(-8.657779585761,2.459576603846,
    34.992542409477));
#169 = CARTESIAN_POINT('',(-8.673709117047,2.402905393304,
    35.047267079821));
#170 = CARTESIAN_POINT('',(-8.689680489438,2.344332456897,35.10091440456
    ));
#171 = CARTESIAN_POINT('',(-8.705643821883,2.283838137271,
    35.153414962784));
#172 = CARTESIAN_POINT('',(-8.741684801111,2.142336114142,
    35.269632588114));
#173 = CARTESIAN_POINT('',(-8.761729817649,2.060140174418,
    35.332625706685));
#174 = CARTESIAN_POINT('',(-8.781568770185,1.974792907818,
    35.393503232326));
#175 = CARTESIAN_POINT('',(-8.801080577422,1.886279076991,
    35.452082409972));
#176 = CARTESIAN_POINT('',(-8.820136255448,1.794591086393,
    35.508167165453));
#177 = CARTESIAN_POINT('',(-8.838599664071,1.699729270098,
    35.561547849965));
#178 = CARTESIAN_POINT('',(-8.877170768929,1.486457183653,
    35.671315927613));
#179 = CARTESIAN_POINT('',(-8.897021539473,1.366705454201,
    35.726652173663));
#180 = CARTESIAN_POINT('',(-8.915601159404,1.24268389531,35.777506010833
    ));
#181 = CARTESIAN_POINT('',(-8.932635547926,1.114661631259,
    35.823411096166));
#182 = CARTESIAN_POINT('',(-8.947863743702,0.982939548435,
    35.863936021897));
#183 = CARTESIAN_POINT('',(-8.961045699708,0.847849837196,35.89868188174
    ));
#184 = CARTESIAN_POINT('',(-8.987535656811,0.512992141552,
    35.968027576808));
#185 = CARTESIAN_POINT('',(-8.998508807587,0.310243563951,
    35.996270517142));
#186 = CARTESIAN_POINT('',(-9.004188439004,0.103826439596,
    36.010709895285));
#187 = CARTESIAN_POINT('',(-9.004188439004,-0.103826439596,
    36.010709895285));
#188 = CARTESIAN_POINT('',(-8.998508807587,-0.310243563951,
    35.996270517142));
#189 = CARTESIAN_POINT('',(-8.987535656811,-0.512992141552,
    35.968027576808));
#190 = CARTESIAN_POINT('',(-8.961080989471,-0.847403741767,
    35.898774263662));
#191 = CARTESIAN_POINT('',(-8.947948409567,-0.982072758694,
    35.864159201478));
#192 = CARTESIAN_POINT('',(-8.932781474992,-1.113400096922,
    35.823799466701));
#193 = CARTESIAN_POINT('',(-8.915818011068,-1.241053738403,
    35.778090397121));
#194 = CARTESIAN_POINT('',(-8.897316814185,-1.36473261707,
    35.727460258278));
#195 = CARTESIAN_POINT('',(-8.877549934139,-1.48416710126,
    35.672372649487));
#196 = CARTESIAN_POINT('',(-8.839736142364,-1.693600483363,
    35.564800012619));
#197 = CARTESIAN_POINT('',(-8.821992870239,-1.785147435612,
    35.513550593591));
#198 = CARTESIAN_POINT('',(-8.80369269439,-1.873751441013,
    35.459780814268));
#199 = CARTESIAN_POINT('',(-8.784957729975,-1.959410840692,
    35.403679072883));
#200 = CARTESIAN_POINT('',(-8.765904003333,-2.042130969519,
    35.345422223815));
#201 = CARTESIAN_POINT('',(-8.7466408023,-2.121923916851,35.285175796975
    ));
#202 = CARTESIAN_POINT('',(-8.711423938977,-2.261702849596,
    35.172308943613));
#203 = CARTESIAN_POINT('',(-8.695503385578,-2.322660927244,
    35.120287507966));
#204 = CARTESIAN_POINT('',(-8.679561688382,-2.381701133974,
    35.067105978385));
#205 = CARTESIAN_POINT('',(-8.663649075586,-2.438842748187,
    35.012834606982));
#206 = CARTESIAN_POINT('',(-8.647812681512,-2.494105712937,
    34.957537829858));
#207 = CARTESIAN_POINT('',(-8.632096546618,-2.547510635926,
    34.901274267109));
#208 = CARTESIAN_POINT('',(-8.603362840541,-2.642769454256,
    34.795653551109));
#209 = CARTESIAN_POINT('',(-8.590300003784,-2.685141035841,
    34.746554987097));
#210 = CARTESIAN_POINT('',(-8.577378116878,-2.726205985742,
    34.696833401467));
#211 = CARTESIAN_POINT('',(-8.564621012061,-2.765976138604,
    34.646519358287));
#212 = CARTESIAN_POINT('',(-8.552051344159,-2.804462712231,
    34.595641615009));
#213 = CARTESIAN_POINT('',(-8.539690590581,-2.841676307589,
    34.544227122467));
#214 = CARTESIAN_POINT('',(-8.517810523404,-2.906515694629,
    34.45057482667));
#215 = CARTESIAN_POINT('',(-8.508210058729,-2.934588849328,
    34.408518480083));
#216 = CARTESIAN_POINT('',(-8.49876823065,-2.961851482125,
    34.366145145497));
#217 = CARTESIAN_POINT('',(-8.48949520409,-2.988308371518,
    34.323467546155));
#218 = CARTESIAN_POINT('',(-8.480400735544,-3.013963965285,
    34.280497968163));
#219 = CARTESIAN_POINT('',(-8.471494173072,-3.03882238048,
    34.237248260491));
#220 = CARTESIAN_POINT('',(-8.449094570375,-3.100712676976,
    34.125327807998));
#221 = CARTESIAN_POINT('',(-8.435890600998,-3.136579036596,
    34.05625987372));
#222 = CARTESIAN_POINT('',(-8.423207749529,-3.170499836682,
    33.986572559197));
#223 = CARTESIAN_POINT('',(-8.411078662942,-3.20248721516,
    33.916309970469));
#224 = CARTESIAN_POINT('',(-8.399533433826,-3.232552093488,
    33.845513792561));
#225 = CARTESIAN_POINT('',(-8.388599600388,-3.260704176661,
    33.774223289486));
#226 = CARTESIAN_POINT('',(-8.35463905462,-3.347268178068,
    33.537601620417));
#227 = CARTESIAN_POINT('',(-8.334331781504,-3.39754023568,
    33.370279822439));
#228 = CARTESIAN_POINT('',(-8.317699055716,-3.43783240773,
    33.201041066623));
#229 = CARTESIAN_POINT('',(-8.304982398631,-3.468196191652,
    33.030377549333));
#230 = CARTESIAN_POINT('',(-8.296345580445,-3.488666960289,
    32.858754318613));
#231 = CARTESIAN_POINT('',(-8.291874076218,-3.499260621544,
    32.686621085813));
#232 = CARTESIAN_POINT('',(-8.291211865976,-3.500829425029,
    32.305953351314));
#233 = CARTESIAN_POINT('',(-8.296964107882,-3.487201154874,
    32.097525810108));
#234 = CARTESIAN_POINT('',(-8.308829940851,-3.459108768637,
    31.889915726046));
#235 = CARTESIAN_POINT('',(-8.326641689717,-3.416518849601,
    31.683903652999));
#236 = CARTESIAN_POINT('',(-8.350066146758,-3.359351070199,
    31.480308462319));
#237 = CARTESIAN_POINT('',(-8.378605407502,-3.287487998953,
    31.280019418884));
#238 = CARTESIAN_POINT('',(-8.417977165393,-3.184019819128,
    31.046131002639));
#239 = CARTESIAN_POINT('',(-8.424523810904,-3.16669808177,31.00839038651
    ));
#240 = CARTESIAN_POINT('',(-8.431233067085,-3.148818085879,
    30.970812798174));
#241 = CARTESIAN_POINT('',(-8.438100162022,-3.130378064977,
    30.933404750476));
#242 = CARTESIAN_POINT('',(-8.445120127865,-3.111376095557,
    30.896172879704));
#243 = CARTESIAN_POINT('',(-8.45228780083,-3.091810097084,
    30.859123945579));
#244 = CARTESIAN_POINT('',(-8.468164028284,-3.048085948093,
    30.779071681263));
#245 = CARTESIAN_POINT('',(-8.476925697945,-3.023716463099,
    30.736139270493));
#246 = CARTESIAN_POINT('',(-8.485874218126,-2.998565764361,
    30.693478630548));
#247 = CARTESIAN_POINT('',(-8.495000585937,-2.972629920503,
    30.651101201071));
#248 = CARTESIAN_POINT('',(-8.50429540765,-2.945904681435,30.60901882975
    ));
#249 = CARTESIAN_POINT('',(-8.5137488987,-2.918385478346,30.56724377232)
  );
#250 = CARTESIAN_POINT('',(-8.535246907647,-2.854983817866,30.4744294556
    ));
#251 = CARTESIAN_POINT('',(-8.547370780015,-2.818674167607,
    30.423561648221));
#252 = CARTESIAN_POINT('',(-8.559703220731,-2.781129058937,
    30.373209153229));
#253 = CARTESIAN_POINT('',(-8.57222385193,-2.742338472502,
    30.323397510436));
#254 = CARTESIAN_POINT('',(-8.584911197943,-2.70229178359,
    30.274153916658));
#255 = CARTESIAN_POINT('',(-8.59774268529,-2.660977762127,
    30.225507225723));
#256 = CARTESIAN_POINT('',(-8.626230168588,-2.567295183037,
    30.119890111849));
#257 = CARTESIAN_POINT('',(-8.641938696207,-2.514366287134,
    30.063195951057));
#258 = CARTESIAN_POINT('',(-8.657779585761,-2.459576603846,
    30.007457590523));
#259 = CARTESIAN_POINT('',(-8.673709117047,-2.402905393304,
    29.952732920179));
#260 = CARTESIAN_POINT('',(-8.689680489438,-2.344332456897,
    29.89908559544));
#261 = CARTESIAN_POINT('',(-8.705643821883,-2.283838137271,
    29.846585037216));
#262 = CARTESIAN_POINT('',(-8.741684801109,-2.142336114151,
    29.730367411893));
#263 = CARTESIAN_POINT('',(-8.761729817649,-2.060140174419,
    29.667374293315));
#264 = CARTESIAN_POINT('',(-8.781568770187,-1.974792907809,
    29.606496767668));
#265 = CARTESIAN_POINT('',(-8.801080577424,-1.886279076981,
    29.547917590023));
#266 = CARTESIAN_POINT('',(-8.820136255447,-1.794591086393,
    29.491832834548));
#267 = CARTESIAN_POINT('',(-8.838599664068,-1.699729270111,
    29.438452150041));
#268 = CARTESIAN_POINT('',(-8.877170768929,-1.486457183653,
    29.328684072387));
#269 = CARTESIAN_POINT('',(-8.897021539473,-1.366705454201,
    29.273347826337));
#270 = CARTESIAN_POINT('',(-8.915601159404,-1.24268389531,
    29.222493989168));
#271 = CARTESIAN_POINT('',(-8.932635547926,-1.114661631259,
    29.176588903834));
#272 = CARTESIAN_POINT('',(-8.947863743702,-0.982939548435,
    29.136063978103));
#273 = CARTESIAN_POINT('',(-8.961045699708,-0.847849837196,
    29.10131811826));
#274 = CARTESIAN_POINT('',(-8.987535656811,-0.512992141552,
    29.031972423192));
#275 = CARTESIAN_POINT('',(-8.998508807587,-0.310243563951,
    29.003729482858));
#276 = CARTESIAN_POINT('',(-9.004188439004,-0.103826439596,
    28.989290104715));
#277 = CARTESIAN_POINT('',(-9.004188439004,0.103826439596,
    28.989290104715));
#278 = CARTESIAN_POINT('',(-8.998508807587,0.310243563951,
    29.003729482858));
#279 = CARTESIAN_POINT('',(-8.987535656811,0.512992141552,
    29.031972423192));
#280 = CARTESIAN_POINT('',(-8.961080989471,0.847403741767,
    29.101225736338));
#281 = CARTESIAN_POINT('',(-8.947948409567,0.982072758694,
    29.135840798522));
#282 = CARTESIAN_POINT('',(-8.932781474992,1.113400096922,
    29.176200533299));
#283 = CARTESIAN_POINT('',(-8.915818011068,1.241053738403,
    29.221909602879));
#284 = CARTESIAN_POINT('',(-8.897316814185,1.36473261707,29.272539741722
    ));
#285 = CARTESIAN_POINT('',(-8.877549934139,1.48416710126,29.327627350513
    ));
#286 = CARTESIAN_POINT('',(-8.839736142364,1.693600483363,
    29.435199987381));
#287 = CARTESIAN_POINT('',(-8.821992870239,1.785147435612,
    29.486449406409));
#288 = CARTESIAN_POINT('',(-8.80369269439,1.873751441013,29.540219185732
    ));
#289 = CARTESIAN_POINT('',(-8.784957729975,1.959410840692,
    29.596320927117));
#290 = CARTESIAN_POINT('',(-8.765904003333,2.042130969519,
    29.654577776185));
#291 = CARTESIAN_POINT('',(-8.7466408023,2.121923916851,29.714824203025)
  );
#292 = CARTESIAN_POINT('',(-8.711423938977,2.261702849596,
    29.827691056387));
#293 = CARTESIAN_POINT('',(-8.695503385578,2.322660927244,
    29.879712492034));
#294 = CARTESIAN_POINT('',(-8.679561688382,2.381701133974,
    29.932894021615));
#295 = CARTESIAN_POINT('',(-8.663649075586,2.438842748187,
    29.987165393018));
#296 = CARTESIAN_POINT('',(-8.647812681512,2.494105712937,
    30.042462170142));
#297 = CARTESIAN_POINT('',(-8.632096546618,2.547510635926,
    30.098725732891));
#298 = CARTESIAN_POINT('',(-8.537550236921,2.86095331245,30.446263530436
    ));
#299 = CARTESIAN_POINT('',(-8.462486730943,3.076222328434,
    30.761039631916));
#300 = CARTESIAN_POINT('',(-8.39697430317,3.246464926228,31.092830279068
    ));
#301 = CARTESIAN_POINT('',(-8.345077707214,3.373218789275,
    31.436380354639));
#302 = CARTESIAN_POINT('',(-8.309466269882,3.457584745418,
    31.787662890607));
#303 = CARTESIAN_POINT('',(-8.291561975888,3.5,32.143280816207));
#304 = CARTESIAN_POINT('',(-8.291561975888,3.5,32.5));
#305 = ORIENTED_EDGE('',*,*,#149,.F.);
#306 = ORIENTED_EDGE('',*,*,#307,.F.);
#307 = EDGE_CURVE('',#308,#139,#310,.T.);
#308 = VERTEX_POINT('',#309);
#309 = CARTESIAN_POINT('',(0.,2.89375920011,30.531203999451));
#310 = CIRCLE('',#311,3.5);
#311 = AXIS2_PLACEMENT_3D('',#312,#313,#314);
#312 = CARTESIAN_POINT('',(0.,0.,32.5));
#313 = DIRECTION('',(1.,0.,0.));
#314 = DIRECTION('',(0.,1.,0.));
#315 = ORIENTED_EDGE('',*,*,#316,.F.);
#316 = EDGE_CURVE('',#317,#308,#319,.T.);
#317 = VERTEX_POINT('',#318);
#318 = CARTESIAN_POINT('',(-1.732050807569,2.449489742783,30.));
#319 = B_SPLINE_CURVE_WITH_KNOTS('',7,(#320,#321,#322,#323,#324,#325,
    #326,#327,#328,#329,#330,#331,#332,#333),.UNSPECIFIED.,.F.,.F.,(8,6,
    8),(0.,0.536284636564,1.),.UNSPECIFIED.);
#320 = CARTESIAN_POINT('',(-1.732050807569,2.449489742783,30.));
#321 = CARTESIAN_POINT('',(-1.61466763451,2.516427192515,30.06558503861)
  );
#322 = CARTESIAN_POINT('',(-1.494368170166,2.577271044129,
    30.129298056411));
#323 = CARTESIAN_POINT('',(-1.37112551487,2.63229429551,30.190514001073)
  );
#324 = CARTESIAN_POINT('',(-1.244930537775,2.681612719556,
    30.248495901749));
#325 = CARTESIAN_POINT('',(-1.115792067608,2.725246333664,30.30235654744
    ));
#326 = CARTESIAN_POINT('',(-0.983754355135,2.763148737306,
    30.351082568539));
#327 = CARTESIAN_POINT('',(-0.732353254651,2.822922182668,
    30.430403045213));
#328 = CARTESIAN_POINT('',(-0.613683883386,2.846270853369,
    30.462562106578));
#329 = CARTESIAN_POINT('',(-0.493133847755,2.865143086741,30.48937475225
    ));
#330 = CARTESIAN_POINT('',(-0.370995737858,2.879420241835,
    30.510127800892));
#331 = CARTESIAN_POINT('',(-0.247660977337,2.88899138671,30.524196295619
    ));
#332 = CARTESIAN_POINT('',(-0.123655595969,2.893770092006,
    30.531220008485));
#333 = CARTESIAN_POINT('',(3.293788415302E-04,2.893759185623,
    30.531203978157));
#334 = ORIENTED_EDGE('',*,*,#335,.T.);
#335 = EDGE_CURVE('',#317,#336,#338,.T.);
#336 = VERTEX_POINT('',#337);
#337 = CARTESIAN_POINT('',(-2.672727272727,1.362545017832,
    29.276109326547));
#338 = B_SPLINE_CURVE_WITH_KNOTS('',7,(#339,#340,#341,#342,#343,#344,
    #345,#346),.UNSPECIFIED.,.F.,.F.,(8,8),(0.,1.),
  .PIECEWISE_BEZIER_KNOTS.);
#339 = CARTESIAN_POINT('',(-1.731575356224,2.449825868448,
    30.000329378842));
#340 = CARTESIAN_POINT('',(-1.888177975171,2.339136680624,
    29.891847391898));
#341 = CARTESIAN_POINT('',(-2.038045498048,2.215694653503,
    29.782077851864));
#342 = CARTESIAN_POINT('',(-2.18172095623,2.078500115643,29.672647673513
    ));
#343 = CARTESIAN_POINT('',(-2.318821245984,1.926132856634,
    29.565000660414));
#344 = CARTESIAN_POINT('',(-2.448084645778,1.756984575388,
    29.461087149141));
#345 = CARTESIAN_POINT('',(-2.567211549013,1.569521483772,
    29.363585851354));
#346 = CARTESIAN_POINT('',(-2.672727272727,1.362545017832,
    29.276109326547));
#347 = ORIENTED_EDGE('',*,*,#348,.F.);
#348 = EDGE_CURVE('',#349,#336,#351,.T.);
#349 = VERTEX_POINT('',#350);
#350 = CARTESIAN_POINT('',(-2.672727272727,-1.362545017832,
    29.276109326547));
#351 = B_SPLINE_CURVE_WITH_KNOTS('',5,(#352,#353,#354,#355,#356,#357,
    #358,#359,#360,#361,#362,#363,#364,#365,#366,#367,#368,#369,#370,
    #371,#372,#373,#374,#375,#376,#377,#378,#379,#380,#381,#382,#383,
    #384,#385,#386,#387,#388,#389,#390,#391,#392,#393,#394,#395,#396,
    #397,#398,#399,#400,#401,#402,#403,#404,#405,#406,#407,#408,#409),
  .UNSPECIFIED.,.F.,.F.,(6,4,4,4,4,4,4,4,4,4,4,4,4,4,6),(0.,
    8.808553118968E-02,0.172463884457,0.256382230466,0.344812982542,
    0.411298557931,0.461158192987,0.499480969444,0.555182592201,
    0.588684918497,0.655638294355,0.741852436094,0.8275113144,
    0.912046909012,1.),.UNSPECIFIED.);
#352 = CARTESIAN_POINT('',(-2.256060606061,-1.077121414596,
    29.169863447512));
#353 = CARTESIAN_POINT('',(-2.345248132839,-1.163561412344,
    29.197822172682));
#354 = CARTESIAN_POINT('',(-2.441384891458,-1.238834327783,
    29.225267146449));
#355 = CARTESIAN_POINT('',(-2.54289101134,-1.303012610585,
    29.250749963741));
#356 = CARTESIAN_POINT('',(-2.648625401176,-1.356240883898,
    29.273122494664));
#357 = CARTESIAN_POINT('',(-2.86212026922,-1.439031774151,29.30921013035
    ));
#358 = CARTESIAN_POINT('',(-2.969603907342,-1.469494800443,
    29.323249984494));
#359 = CARTESIAN_POINT('',(-3.079056280468,-1.489824384054,
    29.332896338535));
#360 = CARTESIAN_POINT('',(-3.189496330796,-1.5,29.337722339832));
#361 = CARTESIAN_POINT('',(-3.409901234005,-1.5,29.337722339832));
#362 = CARTESIAN_POINT('',(-3.519740454506,-1.489935024496,
    29.332948799274));
#363 = CARTESIAN_POINT('',(-3.628607734861,-1.469826068213,
    29.323407190497));
#364 = CARTESIAN_POINT('',(-3.735537636735,-1.439693570726,
    29.309515183456));
#365 = CARTESIAN_POINT('',(-3.949023751002,-1.357405369211,
    29.273613067364));
#366 = CARTESIAN_POINT('',(-4.055241892432,-1.304155571902,
    29.251207290848));
#367 = CARTESIAN_POINT('',(-4.157212370604,-1.239871500434,
    29.225653665484));
#368 = CARTESIAN_POINT('',(-4.253783341014,-1.164405951112,
    29.19811161682));
#369 = CARTESIAN_POINT('',(-4.410701928153,-1.012485832082,
    29.148945138613));
#370 = CARTESIAN_POINT('',(-4.474166902192,-0.94085160776,
    29.127524854575));
#371 = CARTESIAN_POINT('',(-4.532987475719,-0.86278675284,
    29.106425852704));
#372 = CARTESIAN_POINT('',(-4.586275992212,-0.778378883608,
    29.086401806144));
#373 = CARTESIAN_POINT('',(-4.668029960648,-0.619944751845,
    29.054646072954));
#374 = CARTESIAN_POINT('',(-4.699390615964,-0.548561200481,
    29.042084882839));
#375 = CARTESIAN_POINT('',(-4.72648436915,-0.474054630807,
    29.030968823754));
#376 = CARTESIAN_POINT('',(-4.748824757879,-0.396865167932,
    29.021659881904));
#377 = CARTESIAN_POINT('',(-4.779225916594,-0.256489521642,
    29.008873299802));
#378 = CARTESIAN_POINT('',(-4.789386477085,-0.194233869908,
    29.004548215786));
#379 = CARTESIAN_POINT('',(-4.796288995235,-0.131117372022,
    29.001590342352));
#380 = CARTESIAN_POINT('',(-4.799827745666,-6.754836243089E-02,
    29.000073823081));
#381 = CARTESIAN_POINT('',(-4.800237673422,8.851379808998E-02,
    28.999898140252));
#382 = CARTESIAN_POINT('',(-4.793356639325,0.180872616872,
    29.002846504758));
#383 = CARTESIAN_POINT('',(-4.779386626341,0.271939897719,
    29.008838367514));
#384 = CARTESIAN_POINT('',(-4.75874833039,0.360547446094,29.017563340198
    ));
#385 = CARTESIAN_POINT('',(-4.716350071293,0.496815081344,
    29.035055970551));
#386 = CARTESIAN_POINT('',(-4.698301183402,0.546766427728,
    29.042427182005));
#387 = CARTESIAN_POINT('',(-4.678264789977,0.595371243187,
    29.050500349069));
#388 = CARTESIAN_POINT('',(-4.656391529583,0.642523566433,
    29.059167662941));
#389 = CARTESIAN_POINT('',(-4.585787412361,0.779277015713,
    29.086589841234));
#390 = CARTESIAN_POINT('',(-4.532070337671,0.864209304314,
    29.106768501286));
#391 = CARTESIAN_POINT('',(-4.472753037744,0.942709418986,
    29.128030109951));
#392 = CARTESIAN_POINT('',(-4.408740669224,1.014688447692,
    29.149605597015));
#393 = CARTESIAN_POINT('',(-4.253343523882,1.164427242389,29.19818825117
    ));
#394 = CARTESIAN_POINT('',(-4.15925252902,1.238017245886,29.225012658942
    ));
#395 = CARTESIAN_POINT('',(-4.060013901611,1.300983626724,
    29.249962443354));
#396 = CARTESIAN_POINT('',(-3.956699407712,1.353461141615,
    29.271960320448));
#397 = CARTESIAN_POINT('',(-3.744337840312,1.437187084572,
    29.308360360094));
#398 = CARTESIAN_POINT('',(-3.635324460171,1.468572590138,
    29.322812301675));
#399 = CARTESIAN_POINT('',(-3.524266358039,1.489515577648,
    29.332749934843));
#400 = CARTESIAN_POINT('',(-3.412163999072,1.5,29.337722339832));
#401 = CARTESIAN_POINT('',(-3.189306858283,1.5,29.337722339832));
#402 = CARTESIAN_POINT('',(-3.07867166162,1.489788766381,29.332879465083
    ));
#403 = CARTESIAN_POINT('',(-2.969040765033,1.469390309922,
    29.323200367421));
#404 = CARTESIAN_POINT('',(-2.861377152609,1.438820865555,
    29.309112945931));
#405 = CARTESIAN_POINT('',(-2.647925700764,1.355888478793,29.27297439549
    ));
#406 = CARTESIAN_POINT('',(-2.542387102666,1.30269389263,29.250623427065
    ));
#407 = CARTESIAN_POINT('',(-2.441067090824,1.238585312197,
    29.225176387943));
#408 = CARTESIAN_POINT('',(-2.345101055406,1.163418865808,
    29.197776066487));
#409 = CARTESIAN_POINT('',(-2.256060606061,1.077121414596,
    29.169863447512));
#410 = ORIENTED_EDGE('',*,*,#411,.T.);
#411 = EDGE_CURVE('',#349,#412,#414,.T.);
#412 = VERTEX_POINT('',#413);
#413 = CARTESIAN_POINT('',(-1.732050807569,-2.449489742783,30.));
#414 = B_SPLINE_CURVE_WITH_KNOTS('',7,(#415,#416,#417,#418,#419,#420,
    #421,#422),.UNSPECIFIED.,.F.,.F.,(8,8),(0.,1.),
  .PIECEWISE_BEZIER_KNOTS.);
#415 = CARTESIAN_POINT('',(-2.672727272727,-1.362545017832,
    29.276109326547));
#416 = CARTESIAN_POINT('',(-2.567211808973,-1.569520973842,
    29.363585635838));
#417 = CARTESIAN_POINT('',(-2.448084945512,-1.756984217663,
    29.461086907931));
#418 = CARTESIAN_POINT('',(-2.318821319763,-1.926132873036,
    29.565000607606));
#419 = CARTESIAN_POINT('',(-2.181720749366,-2.078500380512,
    29.672647850385));
#420 = CARTESIAN_POINT('',(-2.038045169134,-2.215694918399,
    29.782078090604));
#421 = CARTESIAN_POINT('',(-1.88817782929,-2.339136783735,
    29.891847492953));
#422 = CARTESIAN_POINT('',(-1.731575356224,-2.449825868448,
    30.000329378842));
#423 = ORIENTED_EDGE('',*,*,#424,.F.);
#424 = EDGE_CURVE('',#425,#412,#427,.T.);
#425 = VERTEX_POINT('',#426);
#426 = CARTESIAN_POINT('',(0.,-2.89375920011,30.531203999451));
#427 = B_SPLINE_CURVE_WITH_KNOTS('',6,(#428,#429,#430,#431,#432,#433,
    #434,#435,#436,#437,#438,#439,#440,#441,#442,#443,#444),
  .UNSPECIFIED.,.F.,.F.,(7,5,5,7),(0.,1.376620276035E-04,0.45629179891,
    1.),.UNSPECIFIED.);
#428 = CARTESIAN_POINT('',(3.293788557965E-04,-2.893759185623,
    30.531203978157));
#429 = CARTESIAN_POINT('',(2.861569894624E-04,-2.893759189425,
    30.531203983746));
#430 = CARTESIAN_POINT('',(2.429351229838E-04,-2.893759192628,
    30.531203988454));
#431 = CARTESIAN_POINT('',(1.997132563917E-04,-2.893759195233,
    30.531203992282));
#432 = CARTESIAN_POINT('',(1.564913897147E-04,-2.893759197239,
    30.531203995231));
#433 = CARTESIAN_POINT('',(1.132695229798E-04,-2.893759198646,
    30.531203997299));
#434 = CARTESIAN_POINT('',(-0.143149064201,-2.893761878688,
    30.531207936456));
#435 = CARTESIAN_POINT('',(-0.285605844282,-2.887186605242,
    30.521549546134));
#436 = CARTESIAN_POINT('',(-0.426643950388,-2.874180731193,
    30.502420050271));
#437 = CARTESIAN_POINT('',(-0.565752449433,-2.854892088871,
    30.474606204786));
#438 = CARTESIAN_POINT('',(-0.702491759371,-2.82948482685,
    30.439239035692));
#439 = CARTESIAN_POINT('',(-0.996053483677,-2.760812276306,
    30.347842912582));
#440 = CARTESIAN_POINT('',(-1.151701682494,-2.715053493963,
    30.289148087607));
#441 = CARTESIAN_POINT('',(-1.303142998142,-2.661095804805,
    30.223378369374));
#442 = CARTESIAN_POINT('',(-1.450336821063,-2.598987459567,
    30.152368219098));
#443 = CARTESIAN_POINT('',(-1.593288776376,-2.52861843087,
    30.077529963931));
#444 = CARTESIAN_POINT('',(-1.732050807569,-2.449489742783,30.));
#445 = ORIENTED_EDGE('',*,*,#446,.F.);
#446 = EDGE_CURVE('',#447,#425,#449,.T.);
#447 = VERTEX_POINT('',#448);
#448 = CARTESIAN_POINT('',(0.,-2.,35.372281323269));
#449 = CIRCLE('',#450,3.5);
#450 = AXIS2_PLACEMENT_3D('',#451,#452,#453);
#451 = CARTESIAN_POINT('',(0.,0.,32.5));
#452 = DIRECTION('',(1.,0.,0.));
#453 = DIRECTION('',(0.,1.,0.));
#454 = ORIENTED_EDGE('',*,*,#455,.F.);
#455 = EDGE_CURVE('',#456,#447,#458,.T.);
#456 = VERTEX_POINT('',#457);
#457 = CARTESIAN_POINT('',(-1.530434782609,-1.287543931748,
    35.754570728041));
#458 = B_SPLINE_CURVE_WITH_KNOTS('',6,(#459,#460,#461,#462,#463,#464,
    #465,#466,#467,#468,#469,#470,#471,#472,#473,#474,#475),
  .UNSPECIFIED.,.F.,.F.,(7,5,5,7),(0.,0.346521248288,0.666322640791,1.),
  .UNSPECIFIED.);
#459 = CARTESIAN_POINT('',(-1.530434782609,-1.287543931748,
    35.754570728041));
#460 = CARTESIAN_POINT('',(-1.461290307536,-1.369732280485,
    35.722056114434));
#461 = CARTESIAN_POINT('',(-1.388138078659,-1.445932921671,
    35.689029872694));
#462 = CARTESIAN_POINT('',(-1.311492661284,-1.516285526377,
    35.656094232681));
#463 = CARTESIAN_POINT('',(-1.231741116057,-1.580929521646,
    35.623787972008));
#464 = CARTESIAN_POINT('',(-1.14916898379,-1.639978950662,
    35.592605503388));
#465 = CARTESIAN_POINT('',(-0.98537189807,-1.742888974156,
    35.535708036159));
#466 = CARTESIAN_POINT('',(-0.904509113636,-1.787585448715,
    35.509748173139));
#467 = CARTESIAN_POINT('',(-0.821655895801,-1.827570735592,
    35.485539701972));
#468 = CARTESIAN_POINT('',(-0.7370389089,-1.862829311224,35.463459014662
    ));
#469 = CARTESIAN_POINT('',(-0.650855182933,-1.893335381453,
    35.443845450401));
#470 = CARTESIAN_POINT('',(-0.471892307063,-1.945864243281,
    35.409405613781));
#471 = CARTESIAN_POINT('',(-0.378978268801,-1.967464598284,
    35.394821901842));
#472 = CARTESIAN_POINT('',(-0.28493564527,-1.983724815412,
    35.383614113016));
#473 = CARTESIAN_POINT('',(-0.190136480368,-1.994586440881,
    35.376050839526));
#474 = CARTESIAN_POINT('',(-9.493270657757E-02,-2.000015661535,
    35.372270417976));
#475 = CARTESIAN_POINT('',(3.293788415306E-04,-1.999999972877,
    35.372281342155));
#476 = ORIENTED_EDGE('',*,*,#477,.F.);
#477 = EDGE_CURVE('',#478,#456,#480,.T.);
#478 = VERTEX_POINT('',#479);
#479 = CARTESIAN_POINT('',(-1.530434782609,1.287543931748,
    35.754570728041));
#480 = B_SPLINE_CURVE_WITH_KNOTS('',6,(#481,#482,#483,#484,#485,#486,
    #487,#488,#489,#490,#491,#492,#493,#494,#495,#496,#497,#498,#499,
    #500,#501,#502,#503,#504,#505,#506,#507,#508,#509,#510,#511,#512,
    #513,#514,#515,#516,#517,#518,#519,#520,#521,#522,#523,#524,#525,
    #526,#527,#528,#529,#530,#531,#532,#533,#534,#535,#536,#537,#538,
    #539,#540,#541,#542,#543,#544,#545,#546,#547,#548,#549,#550,#551,
    #552),.UNSPECIFIED.,.F.,.F.,(7,5,5,5,5,5,5,5,5,5,5,5,5,5,7),(0.,
    4.176110847545E-02,0.135886301648,0.229211313626,0.324781795237,
    0.401839698464,0.457569325355,0.50023319199,0.56253541924,
    0.59848981948,0.64235108884,0.771193710793,0.864189426514,
    0.958134624488,1.),.UNSPECIFIED.);
#481 = CARTESIAN_POINT('',(-1.530434782609,1.287543931748,
    35.754570728041));
#482 = CARTESIAN_POINT('',(-1.566774967038,1.309264465891,
    35.745977846132));
#483 = CARTESIAN_POINT('',(-1.603678345124,1.329651251706,
    35.737711389226));
#484 = CARTESIAN_POINT('',(-1.641100814839,1.348707177056,
    35.729814276973));
#485 = CARTESIAN_POINT('',(-1.678999199767,1.366433888086,
    35.722326126362));
#486 = CARTESIAN_POINT('',(-1.717331249107,1.382831789221,
    35.715283251721));
#487 = CARTESIAN_POINT('',(-1.843336380143,1.431862319684,
    35.693922768671));
#488 = CARTESIAN_POINT('',(-1.932660384846,1.45908971302,35.681547251264
    ));
#489 = CARTESIAN_POINT('',(-2.023482765383,1.479534089794,
    35.671986391863));
#490 = CARTESIAN_POINT('',(-2.115299631226,1.493173998369,
    35.665515021097));
#491 = CARTESIAN_POINT('',(-2.207630381704,1.5,35.662277660168));
#492 = CARTESIAN_POINT('',(-2.391584361671,1.5,35.662277660168));
#493 = CARTESIAN_POINT('',(-2.483127381006,1.493290016331,35.66546002054
    ));
#494 = CARTESIAN_POINT('',(-2.574174094684,1.479880546354,
    35.671822005114));
#495 = CARTESIAN_POINT('',(-2.664251035485,1.459781902384,
    35.681223478517));
#496 = CARTESIAN_POINT('',(-2.752862359061,1.433015758229,
    35.693398327778));
#497 = CARTESIAN_POINT('',(-2.92819381125,1.365434267417,35.722883946422
    ));
#498 = CARTESIAN_POINT('',(-3.014815672022,1.324296715706,
    35.740311503855));
#499 = CARTESIAN_POINT('',(-3.098922654982,1.276211148822,
    35.759864475765));
#500 = CARTESIAN_POINT('',(-3.180019930433,1.221134032104,
    35.781062304556));
#501 = CARTESIAN_POINT('',(-3.257515034816,1.159011569542,
    35.803330920921));
#502 = CARTESIAN_POINT('',(-3.389683612571,1.034013345682,
    35.844288254406));
#503 = CARTESIAN_POINT('',(-3.445928445865,0.973559472097,
    35.862852852853));
#504 = CARTESIAN_POINT('',(-3.498995316728,0.908447077526,
    35.881341771373));
#505 = CARTESIAN_POINT('',(-3.548410297538,0.838706293734,
    35.899352311507));
#506 = CARTESIAN_POINT('',(-3.593645271476,0.76440760933,35.916449609448
    ));
#507 = CARTESIAN_POINT('',(-3.663378797852,0.628726799956,
    35.943555522277));
#508 = CARTESIAN_POINT('',(-3.690164287001,0.569436057683,
    35.954221525897));
#509 = CARTESIAN_POINT('',(-3.714167345957,0.507985254259,
    35.963975311221));
#510 = CARTESIAN_POINT('',(-3.735123067044,0.444587221481,
    35.972627134498));
#511 = CARTESIAN_POINT('',(-3.75280018961,0.37947828637,35.980008980837)
  );
#512 = CARTESIAN_POINT('',(-3.77786752445,0.261958665211,35.990558007018
    ));
#513 = CARTESIAN_POINT('',(-3.786692187886,0.210176236226,35.9943051865)
  );
#514 = CARTESIAN_POINT('',(-3.793369612219,0.157764981316,
    35.997158215166));
#515 = CARTESIAN_POINT('',(-3.797831211387,0.104927637474,
    35.999070571071));
#516 = CARTESIAN_POINT('',(-3.800041888994,5.187077882589E-02,
    36.000017952421));
#517 = CARTESIAN_POINT('',(-3.799937653247,-7.869339103626E-02,
    35.99997327997));
#518 = CARTESIAN_POINT('',(-3.795071051589,-0.156091125175,
    35.997888020279));
#519 = CARTESIAN_POINT('',(-3.785423659935,-0.232785897138,
    35.993752548912));
#520 = CARTESIAN_POINT('',(-3.771149375188,-0.308183178247,
    35.987677502097));
#521 = CARTESIAN_POINT('',(-3.752536473811,-0.381712574881,
    35.979862208931));
#522 = CARTESIAN_POINT('',(-3.717013262971,-0.493890015985,
    35.965225289349));
#523 = CARTESIAN_POINT('',(-3.702702295415,-0.534169488574,
    35.959376918096));
#524 = CARTESIAN_POINT('',(-3.687141423721,-0.573626942332,
    35.953081157799));
#525 = CARTESIAN_POINT('',(-3.670396545202,-0.612213245953,
    35.946385333859));
#526 = CARTESIAN_POINT('',(-3.652537165534,-0.649883276408,
    35.939339106405));
#527 = CARTESIAN_POINT('',(-3.610579092355,-0.731382178557,
    35.923034647264));
#528 = CARTESIAN_POINT('',(-3.58597026969,-0.774747266485,
    35.913629735336));
#529 = CARTESIAN_POINT('',(-3.559920010478,-0.816659996121,
    35.90386421225));
#530 = CARTESIAN_POINT('',(-3.532534016316,-0.85709538354,
    35.893821454128));
#531 = CARTESIAN_POINT('',(-3.503914022134,-0.896034219541,
    35.883582545337));
#532 = CARTESIAN_POINT('',(-3.386750405443,-1.043408753917,
    35.842800024583));
#533 = CARTESIAN_POINT('',(-3.28949129543,-1.14038524797,35.811334288107
    ));
#534 = CARTESIAN_POINT('',(-3.184537977433,-1.224399640511,
    35.780686828273));
#535 = CARTESIAN_POINT('',(-3.073506465142,-1.29562983077,
    35.752420737087));
#536 = CARTESIAN_POINT('',(-2.957638699997,-1.354235423934,
    35.727780051745));
#537 = CARTESIAN_POINT('',(-2.751545822273,-1.433412769803,
    35.69321772377));
#538 = CARTESIAN_POINT('',(-2.66318059312,-1.460020375105,
    35.681111917873));
#539 = CARTESIAN_POINT('',(-2.573362582055,-1.479999911183,
    35.671765371839));
#540 = CARTESIAN_POINT('',(-2.482583244881,-1.493329865107,35.6654411261
    ));
#541 = CARTESIAN_POINT('',(-2.391311993246,-1.5,35.662277660168));
#542 = CARTESIAN_POINT('',(-2.207755715236,-1.5,35.662277660168));
#543 = CARTESIAN_POINT('',(-2.115550060508,-1.49319251092,
    35.665506243334));
#544 = CARTESIAN_POINT('',(-2.023856213327,-1.479589538151,
    35.671960083748));
#545 = CARTESIAN_POINT('',(-1.933152894225,-1.459200495133,
    35.681495439743));
#546 = CARTESIAN_POINT('',(-1.843941955493,-1.432046760727,
    35.693838932564));
#547 = CARTESIAN_POINT('',(-1.717917200091,-1.383082306907,
    35.715175643749));
#548 = CARTESIAN_POINT('',(-1.6794626484,-1.366650571348,35.722234587633
    ));
#549 = CARTESIAN_POINT('',(-1.641444024318,-1.348881893651,
    35.729741867969));
#550 = CARTESIAN_POINT('',(-1.603903968663,-1.329775876665,
    35.737660855206));
#551 = CARTESIAN_POINT('',(-1.566886053594,-1.309330862344,
    35.745951578966));
#552 = CARTESIAN_POINT('',(-1.530434782609,-1.287543931748,
    35.754570728041));
#553 = ORIENTED_EDGE('',*,*,#554,.F.);
#554 = EDGE_CURVE('',#141,#478,#555,.T.);
#555 = B_SPLINE_CURVE_WITH_KNOTS('',6,(#556,#557,#558,#559,#560,#561,
    #562,#563,#564,#565,#566,#567,#568,#569,#570,#571,#572),
  .UNSPECIFIED.,.F.,.F.,(7,5,5,7),(0.,0.33161793377,0.653725028568,1.),
  .UNSPECIFIED.);
#556 = CARTESIAN_POINT('',(3.293788415304E-04,1.999999972877,
    35.372281342155));
#557 = CARTESIAN_POINT('',(-9.434442877605E-02,2.000015564652,
    35.372270485437));
#558 = CARTESIAN_POINT('',(-0.188961616625,1.994653287559,
    35.376004293586));
#559 = CARTESIAN_POINT('',(-0.283181633699,1.983925211769,
    35.383474570865));
#560 = CARTESIAN_POINT('',(-0.376658480204,1.96786442219,35.394546299451
    ));
#561 = CARTESIAN_POINT('',(-0.469026627746,1.946528222373,
    35.408957225563));
#562 = CARTESIAN_POINT('',(-0.648146401407,1.894296141146,
    35.443227753968));
#563 = CARTESIAN_POINT('',(-0.734991015536,1.863689816365,
    35.462920714855));
#564 = CARTESIAN_POINT('',(-0.820250607529,1.82826144314,35.485123124939
    ));
#565 = CARTESIAN_POINT('',(-0.90372373734,1.788037546719,35.509488630089
    ));
#566 = CARTESIAN_POINT('',(-0.985178516363,1.743034195348,35.53563259461
    ));
#567 = CARTESIAN_POINT('',(-1.149463571925,1.639768250134,
    35.592716760466));
#568 = CARTESIAN_POINT('',(-1.231968772607,1.58074496786,35.623880198142
    ));
#569 = CARTESIAN_POINT('',(-1.311656736357,1.516134903949,
    35.656164741582));
#570 = CARTESIAN_POINT('',(-1.388242438469,1.445824198987,
    35.689076990334));
#571 = CARTESIAN_POINT('',(-1.46133961017,1.369673677074,35.722079298587
    ));
#572 = CARTESIAN_POINT('',(-1.530434782609,1.287543931748,
    35.754570728041));
#573 = CYLINDRICAL_SURFACE('',#574,3.5);
#574 = AXIS2_PLACEMENT_3D('',#575,#576,#577);
#575 = CARTESIAN_POINT('',(0.,0.,32.5));
#576 = DIRECTION('',(1.,0.,0.));
#577 = DIRECTION('',(0.,1.,0.));
#578 = ADVANCED_FACE('',(#579),#597,.F.);
#579 = FACE_BOUND('',#580,.F.);
#580 = EDGE_LOOP('',(#581,#582,#583,#591));
#581 = ORIENTED_EDGE('',*,*,#307,.T.);
#582 = ORIENTED_EDGE('',*,*,#138,.T.);
#583 = ORIENTED_EDGE('',*,*,#584,.F.);
#584 = EDGE_CURVE('',#585,#141,#587,.T.);
#585 = VERTEX_POINT('',#586);
#586 = CARTESIAN_POINT('',(1.224646799147E-16,2.,35.));
#587 = LINE('',#588,#589);
#588 = CARTESIAN_POINT('',(0.,2.,35.));
#589 = VECTOR('',#590,1.);
#590 = DIRECTION('',(0.,2.22044604925E-16,1.));
#591 = ORIENTED_EDGE('',*,*,#592,.T.);
#592 = EDGE_CURVE('',#585,#308,#593,.T.);
#593 = LINE('',#594,#595);
#594 = CARTESIAN_POINT('',(0.,9.992007221626E-15,45.));
#595 = VECTOR('',#596,1.);
#596 = DIRECTION('',(0.,0.196116135138,-0.980580675691));
#597 = PLANE('',#598);
#598 = AXIS2_PLACEMENT_3D('',#599,#600,#601);
#599 = CARTESIAN_POINT('',(0.,1.220928689767E-16,32.5));
#600 = DIRECTION('',(1.,0.,0.));
#601 = DIRECTION('',(0.,0.,1.));
#602 = ADVANCED_FACE('',(#603),#646,.F.);
#603 = FACE_BOUND('',#604,.F.);
#604 = EDGE_LOOP('',(#605,#606,#612,#613,#614,#620,#621,#629,#638,#645)
  );
#605 = ORIENTED_EDGE('',*,*,#554,.T.);
#606 = ORIENTED_EDGE('',*,*,#607,.T.);
#607 = EDGE_CURVE('',#478,#108,#608,.T.);
#608 = LINE('',#609,#610);
#609 = CARTESIAN_POINT('',(-1.530434782609,1.287543931748,35.));
#610 = VECTOR('',#611,1.);
#611 = DIRECTION('',(0.,2.22044604925E-16,1.));
#612 = ORIENTED_EDGE('',*,*,#107,.F.);
#613 = ORIENTED_EDGE('',*,*,#96,.F.);
#614 = ORIENTED_EDGE('',*,*,#615,.F.);
#615 = EDGE_CURVE('',#456,#97,#616,.T.);
#616 = LINE('',#617,#618);
#617 = CARTESIAN_POINT('',(-1.530434782609,-1.287543931748,35.));
#618 = VECTOR('',#619,1.);
#619 = DIRECTION('',(0.,2.22044604925E-16,1.));
#620 = ORIENTED_EDGE('',*,*,#455,.T.);
#621 = ORIENTED_EDGE('',*,*,#622,.F.);
#622 = EDGE_CURVE('',#623,#447,#625,.T.);
#623 = VERTEX_POINT('',#624);
#624 = CARTESIAN_POINT('',(-3.673940397442E-16,-2.,35.));
#625 = LINE('',#626,#627);
#626 = CARTESIAN_POINT('',(0.,-2.,35.));
#627 = VECTOR('',#628,1.);
#628 = DIRECTION('',(0.,2.22044604925E-16,1.));
#629 = ORIENTED_EDGE('',*,*,#630,.T.);
#630 = EDGE_CURVE('',#623,#631,#633,.T.);
#631 = VERTEX_POINT('',#632);
#632 = CARTESIAN_POINT('',(2.,7.771561172376E-15,35.));
#633 = CIRCLE('',#634,2.);
#634 = AXIS2_PLACEMENT_3D('',#635,#636,#637);
#635 = CARTESIAN_POINT('',(0.,7.771561172376E-15,35.));
#636 = DIRECTION('',(-0.,2.22044604925E-16,1.));
#637 = DIRECTION('',(1.,0.,0.));
#638 = ORIENTED_EDGE('',*,*,#639,.T.);
#639 = EDGE_CURVE('',#631,#585,#640,.T.);
#640 = CIRCLE('',#641,2.);
#641 = AXIS2_PLACEMENT_3D('',#642,#643,#644);
#642 = CARTESIAN_POINT('',(0.,7.771561172376E-15,35.));
#643 = DIRECTION('',(-0.,2.22044604925E-16,1.));
#644 = DIRECTION('',(1.,0.,0.));
#645 = ORIENTED_EDGE('',*,*,#584,.T.);
#646 = CYLINDRICAL_SURFACE('',#647,2.);
#647 = AXIS2_PLACEMENT_3D('',#648,#649,#650);
#648 = CARTESIAN_POINT('',(0.,7.771561172376E-15,35.));
#649 = DIRECTION('',(0.,2.22044604925E-16,1.));
#650 = DIRECTION('',(1.,0.,0.));
#651 = ADVANCED_FACE('',(#652),#659,.F.);
#652 = FACE_BOUND('',#653,.F.);
#653 = EDGE_LOOP('',(#654,#655,#656,#657,#658));
#654 = ORIENTED_EDGE('',*,*,#607,.F.);
#655 = ORIENTED_EDGE('',*,*,#477,.T.);
#656 = ORIENTED_EDGE('',*,*,#615,.T.);
#657 = ORIENTED_EDGE('',*,*,#123,.F.);
#658 = ORIENTED_EDGE('',*,*,#116,.F.);
#659 = CYLINDRICAL_SURFACE('',#660,1.5);
#660 = AXIS2_PLACEMENT_3D('',#661,#662,#663);
#661 = CARTESIAN_POINT('',(-2.3,0.,65.));
#662 = DIRECTION('',(0.,0.,1.));
#663 = DIRECTION('',(1.,0.,0.));
#664 = ADVANCED_FACE('',(#665),#675,.F.);
#665 = FACE_BOUND('',#666,.F.);
#666 = EDGE_LOOP('',(#667,#668,#669));
#667 = ORIENTED_EDGE('',*,*,#622,.T.);
#668 = ORIENTED_EDGE('',*,*,#446,.T.);
#669 = ORIENTED_EDGE('',*,*,#670,.F.);
#670 = EDGE_CURVE('',#623,#425,#671,.T.);
#671 = LINE('',#672,#673);
#672 = CARTESIAN_POINT('',(0.,9.992007221626E-15,45.));
#673 = VECTOR('',#674,1.);
#674 = DIRECTION('',(0.,-0.196116135138,-0.980580675691));
#675 = PLANE('',#676);
#676 = AXIS2_PLACEMENT_3D('',#677,#678,#679);
#677 = CARTESIAN_POINT('',(0.,1.220928689767E-16,32.5));
#678 = DIRECTION('',(1.,0.,0.));
#679 = DIRECTION('',(0.,0.,1.));
#680 = ADVANCED_FACE('',(#681),#701,.F.);
#681 = FACE_BOUND('',#682,.F.);
#682 = EDGE_LOOP('',(#683,#684,#693,#699,#700));
#683 = ORIENTED_EDGE('',*,*,#424,.T.);
#684 = ORIENTED_EDGE('',*,*,#685,.T.);
#685 = EDGE_CURVE('',#412,#686,#688,.T.);
#686 = VERTEX_POINT('',#687);
#687 = CARTESIAN_POINT('',(3.,6.661338147751E-15,30.));
#688 = CIRCLE('',#689,3.);
#689 = AXIS2_PLACEMENT_3D('',#690,#691,#692);
#690 = CARTESIAN_POINT('',(0.,6.661338147751E-15,30.));
#691 = DIRECTION('',(-0.,2.22044604925E-16,1.));
#692 = DIRECTION('',(1.,0.,0.));
#693 = ORIENTED_EDGE('',*,*,#694,.T.);
#694 = EDGE_CURVE('',#686,#631,#695,.T.);
#695 = LINE('',#696,#697);
#696 = CARTESIAN_POINT('',(3.,6.661338147751E-15,30.));
#697 = VECTOR('',#698,1.);
#698 = DIRECTION('',(-0.196116135138,2.177326487309E-16,0.980580675691)
  );
#699 = ORIENTED_EDGE('',*,*,#630,.F.);
#700 = ORIENTED_EDGE('',*,*,#670,.T.);
#701 = CONICAL_SURFACE('',#702,3.,0.19739555985);
#702 = AXIS2_PLACEMENT_3D('',#703,#704,#705);
#703 = CARTESIAN_POINT('',(0.,6.661338147751E-15,30.));
#704 = DIRECTION('',(-0.,-2.22044604925E-16,-1.));
#705 = DIRECTION('',(1.,0.,0.));
#706 = ADVANCED_FACE('',(#707),#751,.F.);
#707 = FACE_BOUND('',#708,.F.);
#708 = EDGE_LOOP('',(#709,#717,#726,#735,#741,#742,#749,#750));
#709 = ORIENTED_EDGE('',*,*,#710,.F.);
#710 = EDGE_CURVE('',#711,#349,#713,.T.);
#711 = VERTEX_POINT('',#712);
#712 = CARTESIAN_POINT('',(-2.672727272727,-1.362545017832,4.00000130718
    ));
#713 = LINE('',#714,#715);
#714 = CARTESIAN_POINT('',(-2.672727272727,-1.362545017832,4.00000130718
    ));
#715 = VECTOR('',#716,1.);
#716 = DIRECTION('',(0.,2.22044604925E-16,1.));
#717 = ORIENTED_EDGE('',*,*,#718,.T.);
#718 = EDGE_CURVE('',#711,#719,#721,.T.);
#719 = VERTEX_POINT('',#720);
#720 = CARTESIAN_POINT('',(3.,8.881787099523E-16,4.00000130718));
#721 = CIRCLE('',#722,3.);
#722 = AXIS2_PLACEMENT_3D('',#723,#724,#725);
#723 = CARTESIAN_POINT('',(0.,8.881787099523E-16,4.00000130718));
#724 = DIRECTION('',(-0.,2.22044604925E-16,1.));
#725 = DIRECTION('',(1.,0.,0.));
#726 = ORIENTED_EDGE('',*,*,#727,.T.);
#727 = EDGE_CURVE('',#719,#728,#730,.T.);
#728 = VERTEX_POINT('',#729);
#729 = CARTESIAN_POINT('',(-2.672727272727,1.362545017832,4.00000130718)
  );
#730 = CIRCLE('',#731,3.);
#731 = AXIS2_PLACEMENT_3D('',#732,#733,#734);
#732 = CARTESIAN_POINT('',(0.,8.881787099523E-16,4.00000130718));
#733 = DIRECTION('',(-0.,2.22044604925E-16,1.));
#734 = DIRECTION('',(1.,0.,0.));
#735 = ORIENTED_EDGE('',*,*,#736,.T.);
#736 = EDGE_CURVE('',#728,#336,#737,.T.);
#737 = LINE('',#738,#739);
#738 = CARTESIAN_POINT('',(-2.672727272727,1.362545017832,4.00000130718)
  );
#739 = VECTOR('',#740,1.);
#740 = DIRECTION('',(0.,2.22044604925E-16,1.));
#741 = ORIENTED_EDGE('',*,*,#335,.F.);
#742 = ORIENTED_EDGE('',*,*,#743,.F.);
#743 = EDGE_CURVE('',#686,#317,#744,.T.);
#744 = CIRCLE('',#745,3.);
#745 = AXIS2_PLACEMENT_3D('',#746,#747,#748);
#746 = CARTESIAN_POINT('',(0.,6.661338147751E-15,30.));
#747 = DIRECTION('',(-0.,2.22044604925E-16,1.));
#748 = DIRECTION('',(1.,0.,0.));
#749 = ORIENTED_EDGE('',*,*,#685,.F.);
#750 = ORIENTED_EDGE('',*,*,#411,.F.);
#751 = CYLINDRICAL_SURFACE('',#752,3.);
#752 = AXIS2_PLACEMENT_3D('',#753,#754,#755);
#753 = CARTESIAN_POINT('',(0.,8.881787099523E-16,4.00000130718));
#754 = DIRECTION('',(0.,2.22044604925E-16,1.));
#755 = DIRECTION('',(1.,0.,0.));
#756 = ADVANCED_FACE('',(#757),#851,.F.);
#757 = FACE_BOUND('',#758,.F.);
#758 = EDGE_LOOP('',(#759,#760,#761,#762));
#759 = ORIENTED_EDGE('',*,*,#710,.T.);
#760 = ORIENTED_EDGE('',*,*,#348,.T.);
#761 = ORIENTED_EDGE('',*,*,#736,.F.);
#762 = ORIENTED_EDGE('',*,*,#763,.F.);
#763 = EDGE_CURVE('',#711,#728,#764,.T.);
#764 = B_SPLINE_CURVE_WITH_KNOTS('',7,(#765,#766,#767,#768,#769,#770,
    #771,#772,#773,#774,#775,#776,#777,#778,#779,#780,#781,#782,#783,
    #784,#785,#786,#787,#788,#789,#790,#791,#792,#793,#794,#795,#796,
    #797,#798,#799,#800,#801,#802,#803,#804,#805,#806,#807,#808,#809,
    #810,#811,#812,#813,#814,#815,#816,#817,#818,#819,#820,#821,#822,
    #823,#824,#825,#826,#827,#828,#829,#830,#831,#832,#833,#834,#835,
    #836,#837,#838,#839,#840,#841,#842,#843,#844,#845,#846,#847,#848,
    #849,#850),.UNSPECIFIED.,.F.,.F.,(8,6,6,6,6,6,6,6,6,6,6,6,6,6,8),(0.
    ,0.154321568878,0.290345287221,0.363020026442,0.424661935033,
    0.451406253654,0.467034049615,0.500168749373,0.544307330076,
    0.567430657734,0.614768935752,0.68828088934,0.82068905009,
    0.975214803018,1.),.UNSPECIFIED.);
#765 = CARTESIAN_POINT('',(-2.672727272727,-1.362545017832,4.00000130718
    ));
#766 = CARTESIAN_POINT('',(-2.764102562633,-1.404611317701,
    3.899488455436));
#767 = CARTESIAN_POINT('',(-2.858953384784,-1.439613406234,
    3.799081418375));
#768 = CARTESIAN_POINT('',(-2.957114049288,-1.467411406114,
    3.698947436165));
#769 = CARTESIAN_POINT('',(-3.05837703377,-1.487671126965,3.599261000629
    ));
#770 = CARTESIAN_POINT('',(-3.16248215975,-1.499936544908,3.500212001266
    ));
#771 = CARTESIAN_POINT('',(-3.269105563868,-1.503629771218,
    3.402011656294));
#772 = CARTESIAN_POINT('',(-3.473697759213,-1.492997316852,3.21929574093
    ));
#773 = CARTESIAN_POINT('',(-3.571132766719,-1.480759457724,
    3.134592623183));
#774 = CARTESIAN_POINT('',(-3.669917014348,-1.460748167529,
    3.050910656742));
#775 = CARTESIAN_POINT('',(-3.769679982753,-1.432322288209,
    2.968475082374));
#776 = CARTESIAN_POINT('',(-3.869882503876,-1.394711057497,
    2.887615385616));
#777 = CARTESIAN_POINT('',(-3.969803809594,-1.347056339751,
    2.808756986649));
#778 = CARTESIAN_POINT('',(-4.121177300513,-1.25675584552,2.691702876019
    ));
#779 = CARTESIAN_POINT('',(-4.173507094824,-1.222126930675,
    2.651691512643));
#780 = CARTESIAN_POINT('',(-4.225304639836,-1.184143208625,
    2.612515853447));
#781 = CARTESIAN_POINT('',(-4.276371333697,-1.142625067638,
    2.574294497883));
#782 = CARTESIAN_POINT('',(-4.326458132624,-1.097392464117,
    2.537177003851));
#783 = CARTESIAN_POINT('',(-4.375262365742,-1.048267501885,
    2.501344313759));
#784 = CARTESIAN_POINT('',(-4.462423560403,-0.949951247754,2.43789125158
    ));
#785 = CARTESIAN_POINT('',(-4.501229335893,-0.901916215911,
    2.409859033095));
#786 = CARTESIAN_POINT('',(-4.538621659455,-0.850858944223,
    2.383044667703));
#787 = CARTESIAN_POINT('',(-4.574325887831,-0.796701378074,
    2.357614624803));
#788 = CARTESIAN_POINT('',(-4.608015075281,-0.739408727257,
    2.333767411132));
#789 = CARTESIAN_POINT('',(-4.639321076364,-0.679008188855,
    2.311726124875));
#790 = CARTESIAN_POINT('',(-4.680231698611,-0.588107330711,
    2.283052104298));
#791 = CARTESIAN_POINT('',(-4.692087016932,-0.560041371735,
    2.274761431117));
#792 = CARTESIAN_POINT('',(-4.703386116341,-0.531426251789,
    2.266876282529));
#793 = CARTESIAN_POINT('',(-4.714095319262,-0.502277826248,
    2.259417211407));
#794 = CARTESIAN_POINT('',(-4.724180665891,-0.472616773501,
    2.252404964186));
#795 = CARTESIAN_POINT('',(-4.733608700028,-0.44246915317,2.245859999858
    ));
#796 = CARTESIAN_POINT('',(-4.747453548845,-0.393984857474,
    2.236262077862));
#797 = CARTESIAN_POINT('',(-4.752324461365,-0.375947536289,
    2.232888398866));
#798 = CARTESIAN_POINT('',(-4.756953486689,-0.35776141767,2.229684955489
    ));
#799 = CARTESIAN_POINT('',(-4.761334412852,-0.339433580464,
    2.226655552698));
#800 = CARTESIAN_POINT('',(-4.765461321686,-0.320971765464,
    2.223803816917));
#801 = CARTESIAN_POINT('',(-4.769328588821,-0.302384375411,
    2.221133196033));
#802 = CARTESIAN_POINT('',(-4.780568618331,-0.244023691267,2.21337553757
    ));
#803 = CARTESIAN_POINT('',(-4.787015982363,-0.203839802365,
    2.208932477374));
#804 = CARTESIAN_POINT('',(-4.792221791514,-0.16322015331,2.205349233218
    ));
#805 = CARTESIAN_POINT('',(-4.79614497404,-0.122264013036,2.202651018094
    ));
#806 = CARTESIAN_POINT('',(-4.798756451655,-8.107828326205E-02,
    2.200855669831));
#807 = CARTESIAN_POINT('',(-4.800041020479,-3.977720738321E-02,
    2.199972517357));
#808 = CARTESIAN_POINT('',(-4.799943565695,5.652697022331E-02,
    2.20003951755));
#809 = CARTESIAN_POINT('',(-4.79753415676,0.111540428276,2.201696036212)
  );
#810 = CARTESIAN_POINT('',(-4.792770976825,0.166264134811,2.204970680352
    ));
#811 = CARTESIAN_POINT('',(-4.785704548322,0.220432735432,2.209832477301
    ));
#812 = CARTESIAN_POINT('',(-4.776426433624,0.273809856491,2.21622532072)
  );
#813 = CARTESIAN_POINT('',(-4.76505972421,0.326188280237,2.224073686987)
  );
#814 = CARTESIAN_POINT('',(-4.744776582785,0.404213749028,2.238115731747
    ));
#815 = CARTESIAN_POINT('',(-4.737269387671,0.430717902169,2.243318675578
    ));
#816 = CARTESIAN_POINT('',(-4.729248012113,0.456879406922,2.248884889815
    ));
#817 = CARTESIAN_POINT('',(-4.720733553312,0.482678530931,2.254801463218
    ));
#818 = CARTESIAN_POINT('',(-4.711747710407,0.508098718489,2.261055127456
    ));
#819 = CARTESIAN_POINT('',(-4.702312356839,0.533126327087,2.267632518003
    ));
#820 = CARTESIAN_POINT('',(-4.672256993337,0.608160906973,2.288621438811
    ));
#821 = CARTESIAN_POINT('',(-4.650273126011,0.656875535729,2.304022737391
    ));
#822 = CARTESIAN_POINT('',(-4.626681644387,0.70380858533,2.320612226037)
  );
#823 = CARTESIAN_POINT('',(-4.601661426594,0.748913347738,2.338280971724
    ));
#824 = CARTESIAN_POINT('',(-4.575380432947,0.792175100833,2.356926817109
    ));
#825 = CARTESIAN_POINT('',(-4.547990043653,0.833604137472,2.376457984516
    ));
#826 = CARTESIAN_POINT('',(-4.475562413838,0.934762210497,2.428380786792
    ));
#827 = CARTESIAN_POINT('',(-4.429158080437,0.991922542647,2.461900337056
    ));
#828 = CARTESIAN_POINT('',(-4.380882766029,1.044839585392,2.497070315031
    ));
#829 = CARTESIAN_POINT('',(-4.33114088014,1.093674347335,2.533647070915)
  );
#830 = CARTESIAN_POINT('',(-4.280265985027,1.138609170977,2.571429441254
    ));
#831 = CARTESIAN_POINT('',(-4.228521908601,1.179837852407,2.61025986941)
  );
#832 = CARTESIAN_POINT('',(-4.081689582959,1.285492452385,2.721650577424
    ));
#833 = CARTESIAN_POINT('',(-3.985187395479,1.341967983775,2.796235490342
    ));
#834 = CARTESIAN_POINT('',(-3.887742771628,1.388160640266,2.873115903172
    ));
#835 = CARTESIAN_POINT('',(-3.79019268033,1.42494706874,2.951797903317)
  );
#836 = CARTESIAN_POINT('',(-3.693161335267,1.453134886643,3.031901276865
    ));
#837 = CARTESIAN_POINT('',(-3.597070473245,1.473404206154,3.113172031922
    ));
#838 = CARTESIAN_POINT('',(-3.391438829028,1.501375855074,3.291534687313
    ));
#839 = CARTESIAN_POINT('',(-3.282431316053,1.506400088005,3.388916002699
    ));
#840 = CARTESIAN_POINT('',(-3.175648048146,1.50228483084,3.48733801523)
  );
#841 = CARTESIAN_POINT('',(-3.071476370711,1.489707939163,3.586557799988
    ));
#842 = CARTESIAN_POINT('',(-2.9702186424,1.469213841484,3.686367784581)
  );
#843 = CARTESIAN_POINT('',(-2.872107577685,1.441226819464,3.786590692887
    ));
#844 = CARTESIAN_POINT('',(-2.76211493522,1.400336657706,3.903193509083)
  );
#845 = CARTESIAN_POINT('',(-2.746997210694,1.394498272365,3.919317112604
    ));
#846 = CARTESIAN_POINT('',(-2.731966303402,1.388474608653,3.935446174327
    ));
#847 = CARTESIAN_POINT('',(-2.717023044802,1.382266638434,3.95157992031)
  );
#848 = CARTESIAN_POINT('',(-2.702168252817,1.375875227602,3.967717562129
    ));
#849 = CARTESIAN_POINT('',(-2.687402731839,1.369301136082,3.983858296881
    ));
#850 = CARTESIAN_POINT('',(-2.672727272727,1.362545017832,4.00000130718)
  );
#851 = CYLINDRICAL_SURFACE('',#852,1.5);
#852 = AXIS2_PLACEMENT_3D('',#853,#854,#855);
#853 = CARTESIAN_POINT('',(-3.3,0.,0.));
#854 = DIRECTION('',(0.,0.,-1.));
#855 = DIRECTION('',(1.,0.,0.));
#856 = ADVANCED_FACE('',(#857),#864,.F.);
#857 = FACE_BOUND('',#858,.F.);
#858 = EDGE_LOOP('',(#859,#860,#861,#862,#863));
#859 = ORIENTED_EDGE('',*,*,#694,.F.);
#860 = ORIENTED_EDGE('',*,*,#743,.T.);
#861 = ORIENTED_EDGE('',*,*,#316,.T.);
#862 = ORIENTED_EDGE('',*,*,#592,.F.);
#863 = ORIENTED_EDGE('',*,*,#639,.F.);
#864 = CONICAL_SURFACE('',#865,3.,0.19739555985);
#865 = AXIS2_PLACEMENT_3D('',#866,#867,#868);
#866 = CARTESIAN_POINT('',(0.,6.661338147751E-15,30.));
#867 = DIRECTION('',(-0.,-2.22044604925E-16,-1.));
#868 = DIRECTION('',(1.,0.,0.));
#869 = ADVANCED_FACE('',(#870),#891,.F.);
#870 = FACE_BOUND('',#871,.F.);
#871 = EDGE_LOOP('',(#872,#880,#887,#888,#889,#890));
#872 = ORIENTED_EDGE('',*,*,#873,.F.);
#873 = EDGE_CURVE('',#874,#719,#876,.T.);
#874 = VERTEX_POINT('',#875);
#875 = CARTESIAN_POINT('',(7.,0.,0.));
#876 = LINE('',#877,#878);
#877 = CARTESIAN_POINT('',(7.,0.,0.));
#878 = VECTOR('',#879,1.);
#879 = DIRECTION('',(-0.707106665647,1.570092715233E-16,0.707106896726)
  );
#880 = ORIENTED_EDGE('',*,*,#881,.T.);
#881 = EDGE_CURVE('',#874,#874,#882,.T.);
#882 = CIRCLE('',#883,7.);
#883 = AXIS2_PLACEMENT_3D('',#884,#885,#886);
#884 = CARTESIAN_POINT('',(0.,0.,0.));
#885 = DIRECTION('',(-0.,2.22044604925E-16,1.));
#886 = DIRECTION('',(1.,0.,0.));
#887 = ORIENTED_EDGE('',*,*,#873,.T.);
#888 = ORIENTED_EDGE('',*,*,#718,.F.);
#889 = ORIENTED_EDGE('',*,*,#763,.T.);
#890 = ORIENTED_EDGE('',*,*,#727,.F.);
#891 = CONICAL_SURFACE('',#892,7.,0.785398);
#892 = AXIS2_PLACEMENT_3D('',#893,#894,#895);
#893 = CARTESIAN_POINT('',(0.,0.,0.));
#894 = DIRECTION('',(-0.,-2.22044604925E-16,-1.));
#895 = DIRECTION('',(1.,0.,0.));
#896 = ADVANCED_FACE('',(#897,#908),#919,.F.);
#897 = FACE_BOUND('',#898,.F.);
#898 = EDGE_LOOP('',(#899));
#899 = ORIENTED_EDGE('',*,*,#900,.T.);
#900 = EDGE_CURVE('',#901,#901,#903,.T.);
#901 = VERTEX_POINT('',#902);
#902 = CARTESIAN_POINT('',(9.,0.,-3.));
#903 = CIRCLE('',#904,9.);
#904 = AXIS2_PLACEMENT_3D('',#905,#906,#907);
#905 = CARTESIAN_POINT('',(0.,0.,-3.));
#906 = DIRECTION('',(0.,0.,1.));
#907 = DIRECTION('',(1.,0.,0.));
#908 = FACE_BOUND('',#909,.F.);
#909 = EDGE_LOOP('',(#910));
#910 = ORIENTED_EDGE('',*,*,#911,.F.);
#911 = EDGE_CURVE('',#912,#912,#914,.T.);
#912 = VERTEX_POINT('',#913);
#913 = CARTESIAN_POINT('',(7.,0.,-3.));
#914 = CIRCLE('',#915,7.);
#915 = AXIS2_PLACEMENT_3D('',#916,#917,#918);
#916 = CARTESIAN_POINT('',(0.,0.,-3.));
#917 = DIRECTION('',(-0.,2.22044604925E-16,1.));
#918 = DIRECTION('',(1.,0.,0.));
#919 = PLANE('',#920);
#920 = AXIS2_PLACEMENT_3D('',#921,#922,#923);
#921 = CARTESIAN_POINT('',(-3.E-16,3.7E-16,-3.));
#922 = DIRECTION('',(0.,0.,1.));
#923 = DIRECTION('',(1.,0.,0.));
#924 = ADVANCED_FACE('',(#925),#936,.F.);
#925 = FACE_BOUND('',#926,.F.);
#926 = EDGE_LOOP('',(#927,#933,#934,#935));
#927 = ORIENTED_EDGE('',*,*,#928,.T.);
#928 = EDGE_CURVE('',#874,#912,#929,.T.);
#929 = LINE('',#930,#931);
#930 = CARTESIAN_POINT('',(7.,0.,0.));
#931 = VECTOR('',#932,1.);
#932 = DIRECTION('',(-0.,-0.,-1.));
#933 = ORIENTED_EDGE('',*,*,#911,.T.);
#934 = ORIENTED_EDGE('',*,*,#928,.F.);
#935 = ORIENTED_EDGE('',*,*,#881,.F.);
#936 = CYLINDRICAL_SURFACE('',#937,7.);
#937 = AXIS2_PLACEMENT_3D('',#938,#939,#940);
#938 = CARTESIAN_POINT('',(0.,0.,0.));
#939 = DIRECTION('',(0.,2.22044604925E-16,1.));
#940 = DIRECTION('',(1.,0.,0.));
#941 = ADVANCED_FACE('',(#942,#952),#955,.T.);
#942 = FACE_BOUND('',#943,.F.);
#943 = EDGE_LOOP('',(#944,#945,#950,#951));
#944 = ORIENTED_EDGE('',*,*,#900,.F.);
#945 = ORIENTED_EDGE('',*,*,#946,.F.);
#946 = EDGE_CURVE('',#22,#901,#947,.T.);
#947 = B_SPLINE_CURVE_WITH_KNOTS('',1,(#948,#949),.UNSPECIFIED.,.F.,.F.,
  (2,2),(-65.,3.),.PIECEWISE_BEZIER_KNOTS.);
#948 = CARTESIAN_POINT('',(9.,-2.204364238465E-15,65.));
#949 = CARTESIAN_POINT('',(9.,-2.204364238465E-15,-3.));
#950 = ORIENTED_EDGE('',*,*,#21,.T.);
#951 = ORIENTED_EDGE('',*,*,#946,.T.);
#952 = FACE_BOUND('',#953,.F.);
#953 = EDGE_LOOP('',(#954));
#954 = ORIENTED_EDGE('',*,*,#157,.F.);
#955 = CYLINDRICAL_SURFACE('',#956,9.);
#956 = AXIS2_PLACEMENT_3D('',#957,#958,#959);
#957 = CARTESIAN_POINT('',(0.,0.,0.));
#958 = DIRECTION('',(-0.,-0.,-1.));
#959 = DIRECTION('',(1.,0.,0.));
#960 = ( GEOMETRIC_REPRESENTATION_CONTEXT(3) 
GLOBAL_UNCERTAINTY_ASSIGNED_CONTEXT((#964)) GLOBAL_UNIT_ASSIGNED_CONTEXT
((#961,#962,#963)) REPRESENTATION_CONTEXT('Context #1',
  '3D Context with UNIT and UNCERTAINTY') );
#961 = ( LENGTH_UNIT() NAMED_UNIT(*) SI_UNIT(.MILLI.,.METRE.) );
#962 = ( NAMED_UNIT(*) PLANE_ANGLE_UNIT() SI_UNIT($,.RADIAN.) );
#963 = ( NAMED_UNIT(*) SI_UNIT($,.STERADIAN.) SOLID_ANGLE_UNIT() );
#964 = UNCERTAINTY_MEASURE_WITH_UNIT(LENGTH_MEASURE(2.E-06),#961,
  'distance_accuracy_value','confusion accuracy');
#965 = PRODUCT_RELATED_PRODUCT_CATEGORY('detail',$,(#7));
#966 = PRODUCT_CATEGORY_RELATIONSHIP('','',#967,#965);
#967 = PRODUCT_CATEGORY('part',$);
#968 = CC_DESIGN_PERSON_AND_ORGANIZATION_ASSIGNMENT(#969,#972,(#6,#5));
#969 = PERSON_AND_ORGANIZATION(#970,#971);
#970 = PERSON('IP127.0.0,ppc','','',$,$,$);
#971 = ORGANIZATION('IP127.0.0','Unspecified','');
#972 = PERSON_AND_ORGANIZATION_ROLE('creator');
#973 = CC_DESIGN_PERSON_AND_ORGANIZATION_ASSIGNMENT(#969,#974,(#7));
#974 = PERSON_AND_ORGANIZATION_ROLE('design_owner');
#975 = CC_DESIGN_PERSON_AND_ORGANIZATION_ASSIGNMENT(#969,#976,(#6));
#976 = PERSON_AND_ORGANIZATION_ROLE('design_supplier');
#977 = CC_DESIGN_PERSON_AND_ORGANIZATION_ASSIGNMENT(#969,#978,(#979));
#978 = PERSON_AND_ORGANIZATION_ROLE('classification_officer');
#979 = SECURITY_CLASSIFICATION('','',#980);
#980 = SECURITY_CLASSIFICATION_LEVEL('unclassified');
#981 = CC_DESIGN_SECURITY_CLASSIFICATION(#979,(#6));
#982 = CC_DESIGN_DATE_AND_TIME_ASSIGNMENT(#983,#987,(#5));
#983 = DATE_AND_TIME(#984,#985);
#984 = CALENDAR_DATE(2025,15,7);
#985 = LOCAL_TIME(10,48,$,#986);
#986 = COORDINATED_UNIVERSAL_TIME_OFFSET(2,$,.AHEAD.);
#987 = DATE_TIME_ROLE('creation_date');
#988 = CC_DESIGN_DATE_AND_TIME_ASSIGNMENT(#983,#989,(#979));
#989 = DATE_TIME_ROLE('classification_date');
#990 = CC_DESIGN_APPROVAL(#991,(#6,#5,#979));
#991 = APPROVAL(#992,'');
#992 = APPROVAL_STATUS('not_yet_approved');
#993 = APPROVAL_PERSON_ORGANIZATION(#969,#991,#994);
#994 = APPROVAL_ROLE('approver');
#995 = APPROVAL_DATE_TIME(#983,#991);
#996 = MECHANICAL_DESIGN_GEOMETRIC_PRESENTATION_REPRESENTATION('',(#997)
  ,#960);
#997 = STYLED_ITEM('color',(#998),#15);
#998 = PRESENTATION_STYLE_ASSIGNMENT((#999,#1005));
#999 = SURFACE_STYLE_USAGE(.BOTH.,#1000);
#1000 = SURFACE_SIDE_STYLE('',(#1001));
#1001 = SURFACE_STYLE_FILL_AREA(#1002);
#1002 = FILL_AREA_STYLE('',(#1003));
#1003 = FILL_AREA_STYLE_COLOUR('',#1004);
#1004 = COLOUR_RGB('',0.800000010877,0.800000010877,0.901960800373);
#1005 = CURVE_STYLE('',#1006,POSITIVE_LENGTH_MEASURE(0.1),#1007);
#1006 = DRAUGHTING_PRE_DEFINED_CURVE_FONT('continuous');
#1007 = COLOUR_RGB('',9.803921802644E-02,9.803921802644E-02,
  9.803921802644E-02);
ENDSEC;
END-ISO-10303-21;
